<svg width="126" height="49" viewBox="0 0 126 49" fill="none" xmlns="http://www.w3.org/2000/svg">
<g clip-path="url(#clip0_414_153)">
<path fill-rule="evenodd" clip-rule="evenodd" d="M3.77914 0.0486501L40.0822 5.34907C42.1638 5.65297 44.0262 7.61908 44.2535 9.74076L47.9775 44.5085C48.2016 46.602 46.7294 48.1604 44.6781 47.9894L8.91509 45.0117C6.62381 44.8209 4.54773 42.8572 4.29097 40.6245L0.0265216 3.53335C-0.233835 1.26896 1.45238 -0.291059 3.77914 0.0486501Z" fill="#009432"/>
<path opacity="0.15" fill-rule="evenodd" clip-rule="evenodd" d="M2.36508 5.07204L6.28804 39.1931C6.4977 41.0161 8.22098 42.6576 10.1151 42.8153L43.0142 45.5545C43.8258 45.6222 44.4933 45.3486 44.9375 44.8795C45.3829 44.4091 45.6343 43.7093 45.5444 42.8695L42.1187 10.8858C41.9317 9.14121 40.3776 7.50759 38.6798 7.25973L5.28379 2.38377C4.33267 2.2449 3.55834 2.49821 3.05175 2.96809C2.54744 3.43586 2.26047 4.16215 2.36508 5.07204ZM1.8994 5.12558L5.82237 39.2466C6.05856 41.3004 7.9684 43.1069 10.0762 43.2824L42.9753 46.0216C44.8625 46.1789 46.2167 44.7453 46.0105 42.8195L42.5848 10.8359C42.3757 8.88413 40.6624 7.07547 38.7475 6.7959L5.35152 1.91993C3.21109 1.60742 1.65989 3.04251 1.8994 5.12558Z" fill="#F1F2F2"/>
<path fill-rule="evenodd" clip-rule="evenodd" d="M13.4062 14.8147L24 33.2066L34.5938 14.8147H20.4778L23.9998 20.9576L25.7655 17.9168H29.2783L24 27.0514L16.9466 14.8147H13.4062Z" fill="#F1F2F2"/>
</g>
<rect x="64" y="10.0022" width="62" height="28" rx="6" fill="#282828"/>
<path d="M77.1364 30.0022H73.0114V18.3658H77.1705C78.3409 18.3658 79.3485 18.5988 80.1932 19.0647C81.0379 19.5268 81.6875 20.1916 82.142 21.059C82.6004 21.9264 82.8295 22.9643 82.8295 24.1727C82.8295 25.3848 82.6004 26.4264 82.142 27.2977C81.6875 28.1689 81.0341 28.8374 80.1818 29.3033C79.3333 29.7692 78.3182 30.0022 77.1364 30.0022ZM75.4716 27.8942H77.0341C77.7614 27.8942 78.3731 27.7655 78.8693 27.5079C79.3693 27.2465 79.7443 26.8431 79.9943 26.2977C80.2481 25.7484 80.375 25.0401 80.375 24.1727C80.375 23.3128 80.2481 22.6102 79.9943 22.0647C79.7443 21.5192 79.3712 21.1177 78.875 20.8602C78.3788 20.6026 77.767 20.4738 77.0398 20.4738H75.4716V27.8942ZM95.0252 24.184C95.0252 25.453 94.7846 26.5325 94.3036 27.4227C93.8263 28.3128 93.1748 28.9927 92.349 29.4624C91.5271 29.9283 90.6028 30.1613 89.5763 30.1613C88.5422 30.1613 87.6142 29.9264 86.7922 29.4567C85.9702 28.987 85.3206 28.3071 84.8434 27.417C84.3661 26.5268 84.1274 25.4492 84.1274 24.184C84.1274 22.9151 84.3661 21.8355 84.8434 20.9454C85.3206 20.0552 85.9702 19.3772 86.7922 18.9113C87.6142 18.4416 88.5422 18.2067 89.5763 18.2067C90.6028 18.2067 91.5271 18.4416 92.349 18.9113C93.1748 19.3772 93.8263 20.0552 94.3036 20.9454C94.7846 21.8355 95.0252 22.9151 95.0252 24.184ZM92.5309 24.184C92.5309 23.362 92.4077 22.6689 92.1615 22.1045C91.9191 21.5401 91.5763 21.112 91.1331 20.8204C90.6899 20.5287 90.171 20.3829 89.5763 20.3829C88.9816 20.3829 88.4627 20.5287 88.0195 20.8204C87.5763 21.112 87.2316 21.5401 86.9854 22.1045C86.743 22.6689 86.6218 23.362 86.6218 24.184C86.6218 25.006 86.743 25.6992 86.9854 26.2636C87.2316 26.828 87.5763 27.256 88.0195 27.5477C88.4627 27.8393 88.9816 27.9852 89.5763 27.9852C90.171 27.9852 90.6899 27.8393 91.1331 27.5477C91.5763 27.256 91.9191 26.828 92.1615 26.2636C92.4077 25.6992 92.5309 25.006 92.5309 24.184ZM106.795 22.4397H104.306C104.261 22.1177 104.168 21.8317 104.028 21.5817C103.887 21.328 103.708 21.112 103.488 20.934C103.268 20.756 103.014 20.6196 102.726 20.5249C102.442 20.4302 102.134 20.3829 101.8 20.3829C101.198 20.3829 100.673 20.5325 100.226 20.8317C99.7795 21.1272 99.4329 21.559 99.1867 22.1272C98.9405 22.6916 98.8174 23.3772 98.8174 24.184C98.8174 25.0136 98.9405 25.7105 99.1867 26.2749C99.4367 26.8393 99.7852 27.2655 100.232 27.5533C100.679 27.8412 101.196 27.9852 101.783 27.9852C102.113 27.9852 102.418 27.9416 102.698 27.8545C102.982 27.7673 103.234 27.6405 103.454 27.4738C103.673 27.3033 103.855 27.0969 103.999 26.8545C104.147 26.612 104.249 26.3355 104.306 26.0249L106.795 26.0363C106.73 26.5704 106.569 27.0855 106.312 27.5817C106.058 28.0742 105.715 28.5155 105.283 28.9056C104.855 29.292 104.344 29.5988 103.749 29.8261C103.158 30.0495 102.49 30.1613 101.744 30.1613C100.706 30.1613 99.7776 29.9264 98.9594 29.4567C98.145 28.987 97.5011 28.3071 97.0276 27.417C96.5579 26.5268 96.3231 25.4492 96.3231 24.184C96.3231 22.9151 96.5617 21.8355 97.039 20.9454C97.5163 20.0552 98.164 19.3772 98.9822 18.9113C99.8003 18.4416 100.721 18.2067 101.744 18.2067C102.418 18.2067 103.043 18.3014 103.619 18.4908C104.198 18.6802 104.711 18.9567 105.158 19.3204C105.605 19.6802 105.969 20.1215 106.249 20.6442C106.533 21.167 106.715 21.7655 106.795 22.4397ZM114.551 21.7124C114.506 21.2541 114.311 20.898 113.966 20.6442C113.621 20.3905 113.154 20.2636 112.563 20.2636C112.161 20.2636 111.822 20.3204 111.546 20.434C111.269 20.5439 111.057 20.6973 110.909 20.8942C110.765 21.0912 110.693 21.3147 110.693 21.5647C110.686 21.773 110.729 21.9548 110.824 22.1102C110.923 22.2655 111.057 22.3999 111.228 22.5136C111.398 22.6234 111.595 22.72 111.818 22.8033C112.042 22.8829 112.281 22.9511 112.534 23.0079L113.58 23.2579C114.087 23.3715 114.553 23.523 114.978 23.7124C115.402 23.9018 115.769 24.1348 116.08 24.4113C116.39 24.6878 116.631 25.0136 116.801 25.3886C116.976 25.7636 117.065 26.1935 117.068 26.6783C117.065 27.3905 116.883 28.0079 116.523 28.5306C116.167 29.0495 115.652 29.453 114.978 29.7408C114.307 30.0249 113.498 30.167 112.551 30.167C111.612 30.167 110.794 30.023 110.097 29.7352C109.404 29.4473 108.862 29.0211 108.472 28.4567C108.085 27.8886 107.883 27.1859 107.864 26.3488H110.245C110.271 26.7389 110.383 27.0647 110.58 27.3261C110.781 27.5836 111.048 27.7787 111.381 27.9113C111.718 28.0401 112.099 28.1045 112.523 28.1045C112.94 28.1045 113.301 28.0439 113.608 27.9227C113.919 27.8014 114.159 27.6329 114.33 27.417C114.5 27.2011 114.585 26.953 114.585 26.6727C114.585 26.4113 114.508 26.1916 114.353 26.0136C114.201 25.8355 113.978 25.684 113.682 25.559C113.39 25.434 113.032 25.3204 112.608 25.2181L111.341 24.8999C110.36 24.6613 109.585 24.2882 109.017 23.7806C108.449 23.273 108.167 22.5893 108.171 21.7295C108.167 21.0249 108.354 20.4094 108.733 19.8829C109.116 19.3564 109.64 18.9454 110.307 18.6499C110.974 18.3545 111.731 18.2067 112.58 18.2067C113.443 18.2067 114.197 18.3545 114.841 18.6499C115.489 18.9454 115.993 19.3564 116.353 19.8829C116.712 20.4094 116.898 21.0192 116.909 21.7124H114.551Z" fill="white"/>
<rect x="64.5" y="10.5022" width="61" height="27" rx="5.5" stroke="white" stroke-opacity="0.1"/>
<defs>
<clipPath id="clip0_414_153">
<rect width="48" height="48" fill="white" transform="translate(0 0.00219727)"/>
</clipPath>
</defs>
</svg>
