<svg width="48" height="49" viewBox="0 0 48 49" fill="none" xmlns="http://www.w3.org/2000/svg">
<g clip-path="url(#clip0_951_593)">
<path fill-rule="evenodd" clip-rule="evenodd" d="M3.77914 0.0485433L40.0822 5.34896C42.1638 5.65286 44.0262 7.61897 44.2535 9.74065L47.9775 44.5084C48.2016 46.6018 46.7294 48.1603 44.6781 47.9893L8.91509 45.0116C6.62381 44.8208 4.54773 42.8571 4.29097 40.6244L0.0265216 3.53324C-0.233835 1.26885 1.45238 -0.291166 3.77914 0.0485433Z" fill="#009432"/>
<mask id="mask0_951_593" style="mask-type:alpha" maskUnits="userSpaceOnUse" x="2" y="2" width="44" height="44">
<path fill-rule="evenodd" clip-rule="evenodd" d="M5.46421 2.04258L38.742 6.9013C40.6501 7.17988 42.3573 8.98214 42.5657 10.927L45.9793 42.7975C46.1847 44.7164 44.8353 46.145 42.9549 45.9882L10.1722 43.2587C8.07182 43.0838 6.16875 41.2838 5.93339 39.2372L2.02431 5.23689C1.78565 3.1612 3.33135 1.73118 5.46421 2.04258Z" fill="#282828"/>
</mask>
<g mask="url(#mask0_951_593)">
<path fill-rule="evenodd" clip-rule="evenodd" d="M5.46421 2.04258L38.742 6.9013C40.6501 7.17988 42.3573 8.98214 42.5657 10.927L45.9793 42.7975C46.1847 44.7164 44.8353 46.145 42.9549 45.9882L10.1722 43.2587C8.07182 43.0838 6.16875 41.2838 5.93339 39.2372L2.02431 5.23689C1.78565 3.1612 3.33135 1.73118 5.46421 2.04258Z" fill="#282828"/>
<g opacity="0.2">
<path d="M-192 -158.698H240V-157.798H-192V-158.698Z" fill="#009432"/>
<path d="M-192 -148.798H240V-147.898H-192V-148.798Z" fill="#009432"/>
<path d="M-192 -138.898H240V-137.998H-192V-138.898Z" fill="#009432"/>
<path d="M-192 -128.998H240V-128.098H-192V-128.998Z" fill="#009432"/>
<path d="M-192 -119.098H240V-118.198H-192V-119.098Z" fill="#009432"/>
<path d="M-192 -109.198H240V-108.298H-192V-109.198Z" fill="#009432"/>
<path d="M-192 -99.298H240V-98.398H-192V-99.298Z" fill="#009432"/>
<path d="M-192 -89.398H240V-88.498H-192V-89.398Z" fill="#009432"/>
<path d="M-192 -79.498H240V-78.598H-192V-79.498Z" fill="#009432"/>
<path d="M-192 -69.598H240V-68.698H-192V-69.598Z" fill="#009432"/>
<path d="M-192 -59.698H240V-58.798H-192V-59.698Z" fill="#009432"/>
<path d="M-192 -49.798H240V-48.898H-192V-49.798Z" fill="#009432"/>
<path d="M-192 -39.898H240V-38.998H-192V-39.898Z" fill="#009432"/>
<path d="M-192 -29.998H240V-29.098H-192V-29.998Z" fill="#009432"/>
<path d="M-192 -20.098H240V-19.198H-192V-20.098Z" fill="#009432"/>
<path d="M-192 -10.198H240V-9.29798H-192V-10.198Z" fill="#009432"/>
<path d="M-192 -0.297977H240V0.60202H-192V-0.297977Z" fill="#009432"/>
<path d="M-192 9.60202H240V10.502H-192V9.60202Z" fill="#009432"/>
<path d="M-192 19.502H240V20.402H-192V19.502Z" fill="#009432"/>
<path d="M-192 29.402H240V30.302H-192V29.402Z" fill="#009432"/>
<path d="M-192 39.302H240V40.202H-192V39.302Z" fill="#009432"/>
<path d="M-192 49.202H240V50.102H-192V49.202Z" fill="#009432"/>
<path d="M-192 59.102H240V60.0021H-192V59.102Z" fill="#009432"/>
<path d="M-192 69.0021H240V69.9021H-192V69.0021Z" fill="#009432"/>
<path d="M-192 78.9021H240V79.8021H-192V78.9021Z" fill="#009432"/>
<path d="M-192 88.8021H240V89.7021H-192V88.8021Z" fill="#009432"/>
<path d="M-192 98.7021H240V99.6021H-192V98.7021Z" fill="#009432"/>
<path d="M-192 108.602H240V109.502H-192V108.602Z" fill="#009432"/>
<path d="M-192 118.502H240V119.402H-192V118.502Z" fill="#009432"/>
<path d="M-192 128.402H240V129.302H-192V128.402Z" fill="#009432"/>
<path d="M-192 138.302H240V139.202H-192V138.302Z" fill="#009432"/>
<path d="M-192 148.202H240V149.102H-192V148.202Z" fill="#009432"/>
<path d="M-158.698 240.002V-191.998H-157.798V240.002H-158.698Z" fill="#009432"/>
<path d="M-148.798 240.002V-191.998H-147.898V240.002H-148.798Z" fill="#009432"/>
<path d="M-138.898 240.002V-191.998H-137.998V240.002H-138.898Z" fill="#009432"/>
<path d="M-128.998 240.002V-191.998H-128.098V240.002H-128.998Z" fill="#009432"/>
<path d="M-119.098 240.002V-191.998H-118.198V240.002H-119.098Z" fill="#009432"/>
<path d="M-109.198 240.002V-191.998H-108.298V240.002H-109.198Z" fill="#009432"/>
<path d="M-99.2982 240.002V-191.998H-98.3982V240.002H-99.2982Z" fill="#009432"/>
<path d="M-89.3982 240.002V-191.998H-88.4982V240.002H-89.3982Z" fill="#009432"/>
<path d="M-79.4982 240.002V-191.998H-78.5983V240.002H-79.4982Z" fill="#009432"/>
<path d="M-69.5983 240.002V-191.998H-68.6983V240.002H-69.5983Z" fill="#009432"/>
<path d="M-59.6983 240.002V-191.998H-58.7983V240.002H-59.6983Z" fill="#009432"/>
<path d="M-49.7983 240.002V-191.998H-48.8983V240.002H-49.7983Z" fill="#009432"/>
<path d="M-39.8983 240.002V-191.998H-38.9983V240.002H-39.8983Z" fill="#009432"/>
<path d="M-29.9983 240.002V-191.998H-29.0983V240.002H-29.9983Z" fill="#009432"/>
<path d="M-20.0983 240.002V-191.998H-19.1983V240.002H-20.0983Z" fill="#009432"/>
<path d="M-10.1983 240.002V-191.998H-9.29827V240.002H-10.1983Z" fill="#009432"/>
<path d="M-0.298267 240.002V-191.998H0.60173V240.002H-0.298267Z" fill="#009432"/>
<path d="M9.60173 240.002V-191.998H10.5017V240.002H9.60173Z" fill="#009432"/>
<path d="M19.5017 240.002V-191.998H20.4017V240.002H19.5017Z" fill="#009432"/>
<path d="M29.4017 240.002V-191.998H30.3017V240.002H29.4017Z" fill="#009432"/>
<path d="M39.3017 240.002V-191.998H40.2017V240.002H39.3017Z" fill="#009432"/>
<path d="M49.2017 240.002V-191.998H50.1018V240.002H49.2017Z" fill="#009432"/>
<path d="M59.1018 240.002V-191.998H60.0018V240.002H59.1018Z" fill="#009432"/>
<path d="M69.0018 240.002V-191.998H69.9018V240.002H69.0018Z" fill="#009432"/>
<path d="M78.9018 240.002V-191.998H79.8018V240.002H78.9018Z" fill="#009432"/>
<path d="M88.8018 240.002V-191.998H89.7018V240.002H88.8018Z" fill="#009432"/>
<path d="M98.7018 240.002V-191.998H99.6018V240.002H98.7018Z" fill="#009432"/>
<path d="M108.602 240.002V-191.998H109.502V240.002H108.602Z" fill="#009432"/>
<path d="M118.502 240.002V-191.998H119.402V240.002H118.502Z" fill="#009432"/>
<path d="M128.402 240.002V-191.998H129.302V240.002H128.402Z" fill="#009432"/>
<path d="M138.302 240.002V-191.998H139.202V240.002H138.302Z" fill="#009432"/>
<path d="M148.202 240.002V-191.998H149.102V240.002H148.202Z" fill="#009432"/>
</g>
<path fill-rule="evenodd" clip-rule="evenodd" d="M13.4062 14.8146L24 33.2065L34.5938 14.8146H20.4778L23.9998 20.9575L25.7655 17.9167H29.2783L24 27.0513L16.9466 14.8146H13.4062Z" fill="#F1F2F2"/>
</g>
</g>
<defs>
<clipPath id="clip0_951_593">
<rect width="48" height="48" fill="white" transform="translate(0 0.00209045)"/>
</clipPath>
</defs>
</svg>
