<svg width="126" height="48" viewBox="0 0 126 48" fill="none" xmlns="http://www.w3.org/2000/svg">
<g clip-path="url(#clip0_427_173)">
<path fill-rule="evenodd" clip-rule="evenodd" d="M3.77914 0.0464528L40.0822 5.34687C42.1638 5.65077 44.0262 7.61688 44.2535 9.73856L47.9775 44.5063C48.2016 46.5998 46.7294 48.1582 44.6781 47.9872L8.91509 45.0095C6.62381 44.8187 4.54773 42.855 4.29097 40.6223L0.0265216 3.53115C-0.233835 1.26676 1.45238 -0.293257 3.77914 0.0464528Z" fill="#009432"/>
<path opacity="0.15" fill-rule="evenodd" clip-rule="evenodd" d="M2.36508 5.06984L6.28804 39.1909C6.4977 41.0139 8.22098 42.6554 10.1151 42.8131L43.0142 45.5523C43.8258 45.62 44.4933 45.3464 44.9375 44.8773C45.3829 44.4069 45.6343 43.7071 45.5444 42.8673L42.1187 10.8836C41.9317 9.13901 40.3776 7.50539 38.6798 7.25754L5.28379 2.38157C4.33267 2.2427 3.55834 2.49601 3.05175 2.9659C2.54744 3.43366 2.26047 4.15995 2.36508 5.06984ZM1.8994 5.12338L5.82237 39.2444C6.05856 41.2982 7.9684 43.1047 10.0762 43.2802L42.9753 46.0194C44.8625 46.1767 46.2167 44.7431 46.0105 42.8173L42.5848 10.8338C42.3757 8.88193 40.6624 7.07327 38.7475 6.7937L5.35152 1.91773C3.21109 1.60523 1.65989 3.04031 1.8994 5.12338Z" fill="#F1F2F2"/>
<path fill-rule="evenodd" clip-rule="evenodd" d="M13.4062 14.8125L24 33.2044L34.5938 14.8125H20.4778L23.9998 20.9554L25.7655 17.9146H29.2783L24 27.0492L16.9466 14.8125H13.4062Z" fill="#F1F2F2"/>
</g>
<rect x="64" y="10" width="62" height="28" rx="6" fill="#F7F7F7"/>
<path d="M77.1364 30H73.0114V18.3636H77.1705C78.3409 18.3636 79.3485 18.5966 80.1932 19.0625C81.0379 19.5246 81.6875 20.1894 82.142 21.0568C82.6004 21.9242 82.8295 22.9621 82.8295 24.1705C82.8295 25.3826 82.6004 26.4242 82.142 27.2955C81.6875 28.1667 81.0341 28.8352 80.1818 29.3011C79.3333 29.767 78.3182 30 77.1364 30ZM75.4716 27.892H77.0341C77.7614 27.892 78.3731 27.7633 78.8693 27.5057C79.3693 27.2443 79.7443 26.8409 79.9943 26.2955C80.2481 25.7462 80.375 25.0379 80.375 24.1705C80.375 23.3106 80.2481 22.608 79.9943 22.0625C79.7443 21.517 79.3712 21.1155 78.875 20.858C78.3788 20.6004 77.767 20.4716 77.0398 20.4716H75.4716V27.892ZM95.0252 24.1818C95.0252 25.4508 94.7846 26.5303 94.3036 27.4205C93.8263 28.3106 93.1748 28.9905 92.349 29.4602C91.5271 29.9261 90.6028 30.1591 89.5763 30.1591C88.5422 30.1591 87.6142 29.9242 86.7922 29.4545C85.9702 28.9848 85.3206 28.3049 84.8434 27.4148C84.3661 26.5246 84.1274 25.447 84.1274 24.1818C84.1274 22.9129 84.3661 21.8333 84.8434 20.9432C85.3206 20.053 85.9702 19.375 86.7922 18.9091C87.6142 18.4394 88.5422 18.2045 89.5763 18.2045C90.6028 18.2045 91.5271 18.4394 92.349 18.9091C93.1748 19.375 93.8263 20.053 94.3036 20.9432C94.7846 21.8333 95.0252 22.9129 95.0252 24.1818ZM92.5309 24.1818C92.5309 23.3598 92.4077 22.6667 92.1615 22.1023C91.9191 21.5379 91.5763 21.1098 91.1331 20.8182C90.6899 20.5265 90.171 20.3807 89.5763 20.3807C88.9816 20.3807 88.4627 20.5265 88.0195 20.8182C87.5763 21.1098 87.2316 21.5379 86.9854 22.1023C86.743 22.6667 86.6218 23.3598 86.6218 24.1818C86.6218 25.0038 86.743 25.697 86.9854 26.2614C87.2316 26.8258 87.5763 27.2538 88.0195 27.5455C88.4627 27.8371 88.9816 27.983 89.5763 27.983C90.171 27.983 90.6899 27.8371 91.1331 27.5455C91.5763 27.2538 91.9191 26.8258 92.1615 26.2614C92.4077 25.697 92.5309 25.0038 92.5309 24.1818ZM106.795 22.4375H104.306C104.261 22.1155 104.168 21.8295 104.028 21.5795C103.887 21.3258 103.708 21.1098 103.488 20.9318C103.268 20.7538 103.014 20.6174 102.726 20.5227C102.442 20.428 102.134 20.3807 101.8 20.3807C101.198 20.3807 100.673 20.5303 100.226 20.8295C99.7795 21.125 99.4329 21.5568 99.1867 22.125C98.9405 22.6894 98.8174 23.375 98.8174 24.1818C98.8174 25.0114 98.9405 25.7083 99.1867 26.2727C99.4367 26.8371 99.7852 27.2633 100.232 27.5511C100.679 27.839 101.196 27.983 101.783 27.983C102.113 27.983 102.418 27.9394 102.698 27.8523C102.982 27.7652 103.234 27.6383 103.454 27.4716C103.673 27.3011 103.855 27.0947 103.999 26.8523C104.147 26.6098 104.249 26.3333 104.306 26.0227L106.795 26.0341C106.73 26.5682 106.569 27.0833 106.312 27.5795C106.058 28.072 105.715 28.5133 105.283 28.9034C104.855 29.2898 104.344 29.5966 103.749 29.8239C103.158 30.0473 102.49 30.1591 101.744 30.1591C100.706 30.1591 99.7776 29.9242 98.9594 29.4545C98.145 28.9848 97.5011 28.3049 97.0276 27.4148C96.5579 26.5246 96.3231 25.447 96.3231 24.1818C96.3231 22.9129 96.5617 21.8333 97.039 20.9432C97.5163 20.053 98.164 19.375 98.9822 18.9091C99.8003 18.4394 100.721 18.2045 101.744 18.2045C102.418 18.2045 103.043 18.2992 103.619 18.4886C104.198 18.678 104.711 18.9545 105.158 19.3182C105.605 19.678 105.969 20.1193 106.249 20.642C106.533 21.1648 106.715 21.7633 106.795 22.4375ZM114.551 21.7102C114.506 21.2519 114.311 20.8958 113.966 20.642C113.621 20.3883 113.154 20.2614 112.563 20.2614C112.161 20.2614 111.822 20.3182 111.546 20.4318C111.269 20.5417 111.057 20.6951 110.909 20.892C110.765 21.089 110.693 21.3125 110.693 21.5625C110.686 21.7708 110.729 21.9527 110.824 22.108C110.923 22.2633 111.057 22.3977 111.228 22.5114C111.398 22.6212 111.595 22.7178 111.818 22.8011C112.042 22.8807 112.281 22.9489 112.534 23.0057L113.58 23.2557C114.087 23.3693 114.553 23.5208 114.978 23.7102C115.402 23.8996 115.769 24.1326 116.08 24.4091C116.39 24.6856 116.631 25.0114 116.801 25.3864C116.976 25.7614 117.065 26.1913 117.068 26.6761C117.065 27.3883 116.883 28.0057 116.523 28.5284C116.167 29.0473 115.652 29.4508 114.978 29.7386C114.307 30.0227 113.498 30.1648 112.551 30.1648C111.612 30.1648 110.794 30.0208 110.097 29.733C109.404 29.4451 108.862 29.0189 108.472 28.4545C108.085 27.8864 107.883 27.1837 107.864 26.3466H110.245C110.271 26.7367 110.383 27.0625 110.58 27.3239C110.781 27.5814 111.048 27.7765 111.381 27.9091C111.718 28.0379 112.099 28.1023 112.523 28.1023C112.94 28.1023 113.301 28.0417 113.608 27.9205C113.919 27.7992 114.159 27.6307 114.33 27.4148C114.5 27.1989 114.585 26.9508 114.585 26.6705C114.585 26.4091 114.508 26.1894 114.353 26.0114C114.201 25.8333 113.978 25.6818 113.682 25.5568C113.39 25.4318 113.032 25.3182 112.608 25.2159L111.341 24.8977C110.36 24.6591 109.585 24.286 109.017 23.7784C108.449 23.2708 108.167 22.5871 108.171 21.7273C108.167 21.0227 108.354 20.4072 108.733 19.8807C109.116 19.3542 109.64 18.9432 110.307 18.6477C110.974 18.3523 111.731 18.2045 112.58 18.2045C113.443 18.2045 114.197 18.3523 114.841 18.6477C115.489 18.9432 115.993 19.3542 116.353 19.8807C116.712 20.4072 116.898 21.017 116.909 21.7102H114.551Z" fill="#242424"/>
<rect x="64.5" y="10.5" width="61" height="27" rx="5.5" stroke="black" stroke-opacity="0.1"/>
<defs>
<clipPath id="clip0_427_173">
<rect width="48" height="48" fill="white"/>
</clipPath>
</defs>
</svg>
